<svg width="48" height="48" viewBox="0 0 48 48" fill="none" xmlns="http://www.w3.org/2000/svg">
<rect width="48" height="48" rx="12" fill="#1E293B"/>
<rect x="0.5" y="0.5" width="47" height="47" rx="11.5" stroke="#F8FAFC" stroke-opacity="0.1"/>
<path d="M21.5517 14.4829C23.0758 13.1717 25.3294 13.1717 26.8535 14.4829C27.5118 15.0493 28.3342 15.3905 29.2002 15.4555C31.2051 15.606 32.7987 17.1996 32.9492 19.2046C33.0143 20.0705 33.3555 20.893 33.9219 21.5512C35.2329 23.0753 35.233 25.329 33.9219 26.853C33.3555 27.5113 33.0142 28.3337 32.9492 29.1997C32.7987 31.2046 31.2051 32.7982 29.2002 32.9487C28.3342 33.0137 27.5118 33.355 26.8535 33.9214C25.3294 35.2325 23.0758 35.2325 21.5517 33.9214C20.8935 33.355 20.071 33.0138 19.2051 32.9487C17.2001 32.7982 15.6065 31.2046 15.456 29.1997C15.391 28.3337 15.0497 27.5113 14.4834 26.853C13.1722 25.3289 13.1722 23.0753 14.4834 21.5512C15.0497 20.893 15.391 20.0705 15.456 19.2046C15.6065 17.1996 17.2001 15.606 19.2051 15.4555C20.071 15.3905 20.8935 15.0492 21.5517 14.4829ZM29.4551 20.3657C28.9932 19.9502 28.2818 19.9879 27.8662 20.4497L23.1904 25.645L20.4228 23.3374C19.9455 22.9398 19.2356 23.0047 18.8379 23.4819C18.4404 23.9591 18.5054 24.6682 18.9824 25.0659L22.3603 27.8813C22.9487 28.3716 23.8196 28.309 24.332 27.7397L29.539 21.9546C29.9545 21.4927 29.9168 20.7813 29.4551 20.3657Z" fill="url(#paint0_linear_4_3484)"/>
<defs>
<linearGradient id="paint0_linear_4_3484" x1="13.5" y1="24.2021" x2="34.9052" y2="24.2021" gradientUnits="userSpaceOnUse">
<stop stop-color="#10B981"/>
<stop offset="1" stop-color="#A3E635"/>
</linearGradient>
</defs>
</svg>
