<svg width="48" height="48" viewBox="0 0 48 48" fill="none" xmlns="http://www.w3.org/2000/svg">
<rect width="48" height="48" rx="12" fill="#1E293B"/>
<rect x="0.5" y="0.5" width="47" height="47" rx="11.5" stroke="#F8FAFC" stroke-opacity="0.1"/>
<path d="M32.9863 21.1504C32.9996 21.6895 33 22.3017 33 23V25C33 27.8284 32.9998 29.2424 32.1211 30.1211C31.2424 30.9998 29.8284 31 27 31H21C18.1716 31 16.7576 30.9998 15.8789 30.1211C15.0002 29.2424 15 27.8284 15 25V23C15 22.3017 14.9995 21.6895 15.0127 21.1504L23.0283 25.6045L23.1436 25.6631C23.7242 25.9384 24.4054 25.9191 24.9717 25.6045L32.9863 21.1504ZM27 17C29.8284 17 31.2424 17.0002 32.1211 17.8789C32.4275 18.1853 32.6249 18.5573 32.7549 19.0312C32.6729 19.0521 32.5921 19.083 32.5147 19.126L24 23.8564L15.4854 19.126L15.3936 19.0811C15.3446 19.06 15.2945 19.044 15.2441 19.0312C15.3741 18.5572 15.5724 18.1854 15.8789 17.8789C16.7576 17.0002 18.1716 17 21 17H27Z" fill="url(#paint0_linear_4_3483)"/>
<defs>
<linearGradient id="paint0_linear_4_3483" x1="15" y1="24" x2="33" y2="24" gradientUnits="userSpaceOnUse">
<stop stop-color="#10B981"/>
<stop offset="1" stop-color="#A3E635"/>
</linearGradient>
</defs>
</svg>
