<svg width="56" height="56" viewBox="0 0 56 56" fill="none" xmlns="http://www.w3.org/2000/svg">
<path d="M14.1171 39.9981L10.5878 43.5274C9.80355 41.9588 8.94083 38.1158 11.7643 35.2923C14.5877 32.4689 17.6465 33.3316 18.8229 34.1159L27.0579 25.8809L31.7637 30.5866L23.5286 38.8217C23.9208 39.6059 24.2345 41.8804 22.3522 44.7038C20.4699 47.5273 16.0779 47.4489 14.1171 47.0567L17.6465 43.5274V39.9981H14.1171Z" fill="#CAD5E1"/>
<path d="M44.4087 16.6691L47.938 13.1398C48.7223 14.7084 49.5851 18.5514 46.7616 21.3748C43.9382 24.1983 40.8794 23.3356 39.703 22.5513L31.4679 30.7863L26.7622 26.0806L34.9972 17.8455C34.6051 17.0612 34.2914 14.7868 36.1737 11.9633C38.056 9.13989 42.448 9.21832 44.4087 9.61046L40.8794 13.1398V16.6691H44.4087Z" fill="#CAD5E1"/>
<rect x="17.6927" y="20.8127" width="7.50903" height="37.8678" rx="2.35287" transform="rotate(-45 17.6927 20.8127)" fill="#FF9950"/>
<rect x="6.77368" y="21.8654" width="4.70575" height="11.0716" rx="2.35287" transform="rotate(-45 6.77368 21.8654)" fill="#575D68"/>
<rect x="9.41174" y="22.1512" width="6.8436" height="6.90768" transform="rotate(-45 9.41174 22.1512)" fill="#575D68"/>
<rect x="11.7639" y="17.4443" width="10.888" height="11.0716" rx="2.35287" transform="rotate(-45 11.7639 17.4443)" fill="#575D68"/>
<path d="M18.8234 10.3532L15.2941 13.8825L17.6469 19.9999L23.5291 14.1177C25.7357 11.9111 23.8034 13.8434 28.4068 14.0922C28.8052 14.1137 29.0186 13.6512 28.7533 13.3531C23.2932 7.21856 20.3324 9.22141 18.8234 10.3532Z" fill="#575D68"/>
</svg>
