<svg width="16" height="16" viewBox="0 0 16 16" fill="none" xmlns="http://www.w3.org/2000/svg">
<g clip-path="url(#clip0_6_3517)">
<path d="M6.57105 2.44825C7.46012 1.68331 8.77573 1.68331 9.6648 2.44825C10.0487 2.77856 10.5279 2.97764 11.033 3.01563C12.2025 3.1034 13.1327 4.03357 13.2205 5.20313C13.2584 5.70816 13.4575 6.18736 13.7878 6.57129C14.5528 7.46036 14.5528 8.77597 13.7878 9.66504C13.4575 10.049 13.2585 10.5282 13.2205 11.0332C13.1327 12.2028 12.2025 13.1329 11.033 13.2207C10.5279 13.2587 10.0487 13.4578 9.6648 13.7881C8.77573 14.553 7.46012 14.553 6.57105 13.7881C6.18712 13.4578 5.70792 13.2587 5.20288 13.2207C4.03332 13.1329 3.10316 12.2028 3.01538 11.0332C2.97739 10.5282 2.77832 10.049 2.448 9.66504C1.68306 8.77597 1.68306 7.46036 2.448 6.57129C2.77832 6.18736 2.9774 5.70816 3.01538 5.20313C3.10316 4.03357 4.03332 3.1034 5.20288 3.01563C5.70792 2.97764 6.18712 2.77856 6.57105 2.44825ZM11.1824 5.88086C10.9131 5.63855 10.4981 5.65977 10.2556 5.92871L7.52808 8.95996L5.91284 7.61426C5.63441 7.38226 5.22104 7.41982 4.98902 7.69825C4.757 7.97667 4.7946 8.39004 5.073 8.62207L7.0437 10.2647C7.38692 10.5504 7.89431 10.5136 8.19312 10.1816L11.2312 6.80762C11.4735 6.53838 11.4513 6.12338 11.1824 5.88086Z" fill="#10B981"/>
</g>
<defs>
<clipPath id="clip0_6_3517">
<rect width="14" height="14" fill="white" transform="translate(1 1)"/>
</clipPath>
</defs>
</svg>
