<svg width="40" height="40" viewBox="0 0 40 40" fill="none" xmlns="http://www.w3.org/2000/svg">
<path d="M18.0281 9.24826C10.9987 10.5595 6.36326 17.3213 7.67432 24.3508C8.98559 31.3801 15.7466 36.0156 22.7759 34.7048C29.8054 33.3937 34.4417 26.6325 33.1309 19.603C31.8198 12.5733 25.0577 7.93717 18.0281 9.24826Z" fill="#F5C2D0"/>
<ellipse cx="1.21199" cy="1.16438" rx="1.21199" ry="1.16438" transform="matrix(9.68485e-09 -1 -1 -9.68485e-09 17.4011 24.4461)" fill="#334155"/>
<ellipse cx="1.22" cy="1.165" rx="1.22" ry="1.165" transform="matrix(-4.91277e-08 1 1 4.91277e-08 23.0618 21.9417)" fill="#334155"/>
<circle cx="3.23695" cy="3.23695" r="3.23695" transform="matrix(-0.983048 0.183347 0.183347 0.983048 10.2913 19.7026)" fill="#F5C2D0"/>
<circle cx="3.23695" cy="3.23695" r="3.23695" transform="matrix(-0.983048 0.183347 0.183347 0.983048 35.8032 19.7025)" fill="#F5C2D0"/>
<path d="M17.4074 7.63701C11.9684 8.85854 8.1187 13.3996 7.44134 18.7077C9.3747 20.0383 11.8153 20.594 14.2623 20.0445C16.7466 19.4865 18.7402 17.9028 19.9121 15.8273C21.7845 19.1281 25.6047 20.9736 29.438 20.1129C30.8165 19.8032 32.0425 19.1761 33.0623 18.3262C33.024 18.105 32.979 17.8839 32.9293 17.6624C31.3339 10.5589 24.3843 6.07046 17.4074 7.63701Z" fill="#1E293B"/>
<path d="M20.3384 4.85422C25.295 4.90113 29.332 7.80874 29.7099 11.4666L10.8435 11.2881C11.2905 7.63802 15.3819 4.80736 20.3384 4.85422Z" fill="#FACC15"/>
<rect x="7.69507" y="11.2585" width="25.1647" height="3.14559" rx="1.04853" transform="rotate(0.542194 7.69507 11.2585)" fill="#FACC15"/>
<path d="M17.1707 7.15475C17.1871 5.41757 18.6087 4.02263 20.3459 4.03907C22.0831 4.05551 23.478 5.4771 23.4616 7.21428L23.4219 11.4082L17.131 11.3487L17.1707 7.15475Z" fill="#EAB308"/>
</svg>
