<?xml version="1.0" encoding="UTF-8"?>
<svg version="1.1" xmlns="http://www.w3.org/2000/svg" width="512" height="512">
<path d="M0 0 C0.81162598 0.17160645 1.62325195 0.34321289 2.45947266 0.52001953 C56.8843802 12.27933051 104.72533995 44.70204076 135.37036133 91.26733398 C155.01330573 121.74965132 168.87923093 158.21089604 169.23828125 194.8359375 C169.2480751 195.66447235 169.25786896 196.4930072 169.26795959 197.34664917 C169.82395063 256.645671 152.17939293 310.41671276 110.38037109 353.57275391 C109.08137642 354.91586018 107.79982609 356.27577542 106.51953125 357.63671875 C99.90014794 364.51526225 92.61105631 370.28027664 85 376 C84.44860352 376.4228125 83.89720703 376.845625 83.32910156 377.28125 C51.67350982 401.50071051 9.60974826 416.95788166 -30.453125 417.203125 C-31.22719193 417.21013931 -32.00125885 417.21715363 -32.79878235 417.22438049 C-35.28258157 417.24177733 -37.76614208 417.24823281 -40.25 417.25 C-41.10036835 417.25067474 -41.95073669 417.25134949 -42.82687378 417.25204468 C-55.78589259 417.23571177 -68.2845278 416.68808151 -81 414 C-81.8362793 413.83371094 -82.67255859 413.66742188 -83.53417969 413.49609375 C-102.6046411 409.6492319 -120.97521957 403.29984551 -138.09667969 394.02978516 C-140.04746877 392.97431718 -142.01146519 391.946507 -143.9765625 390.91796875 C-152.14987154 386.5547737 -159.54849867 381.62229861 -166.7734375 375.80957031 C-167.39992187 375.31424805 -168.02640625 374.81892578 -168.671875 374.30859375 C-169.2194043 373.86314209 -169.76693359 373.41769043 -170.33105469 372.95874023 C-172.25728541 371.66792108 -172.25728541 371.66792108 -176 372 C-178.04781035 373.67411181 -179.82136393 375.32074009 -181.65515137 377.20777893 C-182.21519348 377.76793117 -182.77523559 378.32808341 -183.35224867 378.90520996 C-185.23340146 380.79149741 -187.09985647 382.69169358 -188.96679688 384.59204102 C-190.30973684 385.94429099 -191.65359581 387.29562881 -192.99830627 388.64611816 C-195.89541533 391.55928175 -198.78623995 394.47849494 -201.67250061 397.40240669 C-206.23287118 402.02150401 -210.80887638 406.62489268 -215.38757324 411.22581482 C-226.75720301 422.65557815 -238.10576758 434.10619919 -249.45050049 445.56066895 C-258.26712559 454.46209649 -267.08933844 463.35782832 -275.9288125 472.23657364 C-280.48471427 476.81402303 -285.02851872 481.40305871 -289.56368256 486.00105107 C-292.38253387 488.85390683 -295.21164065 491.69641621 -298.04374504 494.53610992 C-299.35911909 495.85927622 -300.67015316 497.18677263 -301.97657967 498.51877403 C-303.7547384 500.33055603 -305.54748994 502.1264991 -307.34484863 503.91920471 C-307.8635287 504.45517747 -308.38220878 504.99115023 -308.91660643 505.54336458 C-310.37940216 506.98346806 -310.37940216 506.98346806 -313 509 C-317.46222218 508.93813687 -320.13140936 505.33625105 -323.11328125 502.35546875 C-323.6870903 501.78927322 -324.26089935 501.2230777 -324.85209656 500.63972473 C-326.0602853 499.44232661 -327.264536 498.24094364 -328.46508789 497.03588867 C-330.30947613 495.19052547 -332.17416731 493.36752625 -334.04101562 491.54492188 C-335.21223571 490.37890672 -336.3822021 489.21163063 -337.55078125 488.04296875 C-338.11211258 487.49803268 -338.67344391 486.95309662 -339.25178528 486.39164734 C-340.7902832 484.82495117 -340.7902832 484.82495117 -343 482 C-342.93066797 477.69162825 -339.55337298 475.14522553 -336.67869568 472.31793213 C-335.83824403 471.47363557 -335.83824403 471.47363557 -334.98081356 470.61228251 C-333.09770457 468.72422415 -331.20405816 466.84710174 -329.31030273 464.96972656 C-327.95977449 463.62004433 -326.6099061 462.26970155 -325.26065063 460.91874695 C-321.59189528 457.24912924 -317.9139496 453.58884835 -314.2343204 449.93013859 C-310.39191996 446.10646487 -306.55798761 442.27431988 -302.72315979 438.4430542 C-295.45828741 431.18751404 -288.18580003 423.93965646 -280.91056544 416.69450831 C-272.6291032 408.44655339 -264.35613629 400.19009997 -256.08388221 391.9329114 C-239.06537667 374.94578157 -222.03619728 357.96938562 -205 341 C-206.50938046 337.82552289 -208.32737428 335.17122107 -210.47680664 332.38500977 C-235.05688968 300.34549172 -250.95301518 258.21199953 -251.203125 217.58203125 C-251.21018463 216.81078918 -251.21724426 216.03954712 -251.22451782 215.24493408 C-251.50090609 176.150967 -244.66872282 140.73468489 -226 106 C-225.40960938 104.86820312 -224.81921875 103.73640625 -224.2109375 102.5703125 C-215.54376452 86.60058526 -204.22084043 72.46533377 -191.51318359 59.54394531 C-190.19580656 58.19978714 -188.90234001 56.83227661 -187.61328125 55.4609375 C-181.85431587 49.43584618 -175.43530075 44.36300177 -168.79541016 39.35546875 C-167.64457401 38.48662971 -166.4979877 37.61211531 -165.35693359 36.73046875 C-120.21452679 1.90987948 -55.74338812 -12.25852238 0 0 Z M-153 80 C-153.72445312 80.60328125 -154.44890625 81.2065625 -155.1953125 81.828125 C-170.37624453 94.48914524 -181.86138241 110.83901758 -191.04052734 128.1953125 C-191.88709014 129.78762603 -192.76359143 131.36394479 -193.64453125 132.9375 C-210.77579368 164.75915897 -215.53801513 207.92739878 -207 243 C-206.80132324 243.83208984 -206.60264648 244.66417969 -206.39794922 245.52148438 C-203.25254706 258.31043037 -198.80459783 270.19333119 -193 282 C-192.68305176 282.65693848 -192.36610352 283.31387695 -192.03955078 283.99072266 C-185.57389011 297.27398509 -177.12002497 308.9943471 -167.05078125 319.796875 C-165.11322087 321.87836844 -163.27310635 324.0162636 -161.4375 326.1875 C-157.92644794 330.19441818 -154.12718174 333.63762155 -150 337 C-149.05253906 337.7734375 -148.10507813 338.546875 -147.12890625 339.34375 C-110.38542756 368.75575646 -64.84412021 379.92489281 -18.38671875 375.57421875 C-13.85058863 375.00749889 -9.4378278 374.08541872 -5 373 C-4.10796875 372.79020508 -3.2159375 372.58041016 -2.296875 372.36425781 C24.72599059 365.81851638 49.06017989 353.24580817 70 335 C70.96421875 334.16984375 71.9284375 333.3396875 72.921875 332.484375 C85.35614976 321.5743147 95.2902994 309.0189357 104 295 C104.69867188 293.89269531 105.39734375 292.78539062 106.1171875 291.64453125 C115.16863679 276.62335178 120.99070932 260.01617558 125 243 C125.3196875 241.72640625 125.639375 240.4528125 125.96875 239.140625 C134.15115656 202.483262 127.01307959 160.33965593 108.98681641 127.78515625 C108.00226303 126.00409384 107.05264841 124.20741195 106.10546875 122.40625 C85.75125784 84.45869423 48.24219154 57.09618444 7.75 44.1875 C-48.14014816 27.35608807 -109.61807215 41.30476242 -153 80 Z " fill="#16CCC7" transform="translate(343,3)"/>
<path d="M0 0 C4.25556298 1.65013765 7.09579796 4.82944222 10.23730469 8.01025391 C10.85236374 8.6250209 11.46742279 9.2397879 12.10112 9.8731842 C14.12948258 11.90293824 16.15067226 13.93968075 18.171875 15.9765625 C19.57819697 17.38661525 20.98496164 18.79622658 22.39215088 20.20541382 C26.09222618 23.91312042 29.78625567 27.62679424 33.47906494 31.34173584 C37.24934253 35.13248259 41.02529761 38.91756457 44.80078125 42.703125 C52.2060936 50.12987841 59.60503232 57.56294714 67 65 C71.25556298 63.34986235 74.09579796 60.17055778 77.23730469 56.98974609 C77.85236374 56.3749791 78.46742279 55.7602121 79.10112 55.1268158 C81.12948258 53.09706176 83.15067226 51.06031925 85.171875 49.0234375 C86.57819697 47.61338475 87.98496164 46.20377342 89.39215088 44.79458618 C93.09222618 41.08687958 96.78625567 37.37320576 100.47906494 33.65826416 C104.24934253 29.86751741 108.02529761 26.08243543 111.80078125 22.296875 C119.2060936 14.87012159 126.60503232 7.43705286 134 0 C138.12390399 1.8931784 140.93280604 4.67825368 144.078125 7.8828125 C144.64956238 8.45707977 145.22099976 9.03134705 145.80975342 9.62301636 C147.62792945 11.4523581 149.43901492 13.28854193 151.25 15.125 C152.48391329 16.36894774 153.71828322 17.6124427 154.953125 18.85546875 C157.97406743 21.89842367 160.98867092 24.94753254 164 28 C162.34986235 32.25556298 159.17055778 35.09579796 155.98974609 38.23730469 C155.3749791 38.85236374 154.7602121 39.46742279 154.1268158 40.10112 C152.09706176 42.12948258 150.06031925 44.15067226 148.0234375 46.171875 C146.61338475 47.57819697 145.20377342 48.98496164 143.79458618 50.39215088 C140.08687958 54.09222618 136.37320576 57.78625567 132.65826416 61.47906494 C128.86751741 65.24934253 125.08243543 69.02529761 121.296875 72.80078125 C113.87012159 80.2060936 106.43705286 87.60503232 99 95 C100.65013765 99.25556298 103.82944222 102.09579796 107.01025391 105.23730469 C107.6250209 105.85236374 108.2397879 106.46742279 108.8731842 107.10112 C110.90293824 109.12948258 112.93968075 111.15067226 114.9765625 113.171875 C116.38661525 114.57819697 117.79622658 115.98496164 119.20541382 117.39215088 C122.91312042 121.09222618 126.62679424 124.78625567 130.34173584 128.47906494 C134.13248259 132.24934253 137.91756457 136.02529761 141.703125 139.80078125 C149.12987841 147.2060936 156.56294714 154.60503232 164 162 C162.1068216 166.12390399 159.32174632 168.93280604 156.1171875 172.078125 C155.54292023 172.64956238 154.96865295 173.22099976 154.37698364 173.80975342 C152.5476419 175.62792945 150.71145807 177.43901492 148.875 179.25 C147.63105226 180.48391329 146.3875573 181.71828322 145.14453125 182.953125 C142.10157633 185.97406743 139.05246746 188.98867092 136 192 C131.74443702 190.34986235 128.90420204 187.17055778 125.76269531 183.98974609 C125.14763626 183.3749791 124.53257721 182.7602121 123.89888 182.1268158 C121.87051742 180.09706176 119.84932774 178.06031925 117.828125 176.0234375 C116.42180303 174.61338475 115.01503836 173.20377342 113.60784912 171.79458618 C109.90777382 168.08687958 106.21374433 164.37320576 102.52093506 160.65826416 C98.75065747 156.86751741 94.97470239 153.08243543 91.19921875 149.296875 C83.7939064 141.87012159 76.39496768 134.43705286 69 127 C64.74443702 128.65013765 61.90420204 131.82944222 58.76269531 135.01025391 C58.14763626 135.6250209 57.53257721 136.2397879 56.89888 136.8731842 C54.87051742 138.90293824 52.84932774 140.93968075 50.828125 142.9765625 C49.42180303 144.38661525 48.01503836 145.79622658 46.60784912 147.20541382 C42.90777382 150.91312042 39.21374433 154.62679424 35.52093506 158.34173584 C31.75065747 162.13248259 27.97470239 165.91756457 24.19921875 169.703125 C16.7939064 177.12987841 9.39496768 184.56294714 2 192 C-2.12390399 190.1068216 -4.93280604 187.32174632 -8.078125 184.1171875 C-8.64956238 183.54292023 -9.22099976 182.96865295 -9.80975342 182.37698364 C-11.62792945 180.5476419 -13.43901492 178.71145807 -15.25 176.875 C-16.48391329 175.63105226 -17.71828322 174.3875573 -18.953125 173.14453125 C-21.97406743 170.10157633 -24.98867092 167.05246746 -28 164 C-26.34986235 159.74443702 -23.17055778 156.90420204 -19.98974609 153.76269531 C-19.0675956 152.84010674 -19.0675956 152.84010674 -18.1268158 151.89888 C-16.09706176 149.87051742 -14.06031925 147.84932774 -12.0234375 145.828125 C-10.61338475 144.42180303 -9.20377342 143.01503836 -7.79458618 141.60784912 C-4.08687958 137.90777382 -0.37320576 134.21374433 3.34173584 130.52093506 C7.13248259 126.75065747 10.91756457 122.97470239 14.703125 119.19921875 C22.12987841 111.7939064 29.56294714 104.39496768 37 97 C35.34986235 92.74443702 32.17055778 89.90420204 28.98974609 86.76269531 C28.3749791 86.14763626 27.7602121 85.53257721 27.1268158 84.89888 C25.09706176 82.87051742 23.06031925 80.84932774 21.0234375 78.828125 C19.61338475 77.42180303 18.20377342 76.01503836 16.79458618 74.60784912 C13.08687958 70.90777382 9.37320576 67.21374433 5.65826416 63.52093506 C1.86751741 59.75065747 -1.91756457 55.97470239 -5.703125 52.19921875 C-13.12987841 44.7939064 -20.56294714 37.39496768 -28 30 C-26.1068216 25.87609601 -23.32174632 23.06719396 -20.1171875 19.921875 C-19.54292023 19.35043762 -18.96865295 18.77900024 -18.37698364 18.19024658 C-16.5476419 16.37207055 -14.71145807 14.56098508 -12.875 12.75 C-11.63105226 11.51608671 -10.3875573 10.28171678 -9.14453125 9.046875 C-6.10157633 6.02593257 -3.05246746 3.01132908 0 0 Z " fill="#18D1C1" transform="translate(234,114)"/>
</svg>
