<svg width="12" height="12" viewBox="0 0 12 12" fill="none" xmlns="http://www.w3.org/2000/svg">
<path fill-rule="evenodd" clip-rule="evenodd" d="M8.44976 1.78506H8.49976C9.88047 1.78506 10.9998 2.90435 10.9998 4.28506V8.78506C10.9998 10.1658 9.88047 11.2851 8.49976 11.2851H3.49976C2.83671 11.2851 2.20083 11.0217 1.73199 10.5528C1.26315 10.084 0.999756 9.4481 0.999756 8.78506V4.28506C0.999756 2.90435 2.11904 1.78506 3.49976 1.78506H3.54976V0.875061C3.54976 0.667954 3.71765 0.500061 3.92476 0.500061C4.13186 0.500061 4.29976 0.667954 4.29976 0.875061V1.78506H7.69976V0.875061C7.69976 0.667954 7.86765 0.500061 8.07476 0.500061C8.28186 0.500061 8.44976 0.667954 8.44976 0.875061V1.78506ZM3.74976 4.83006H8.24976C8.45686 4.83006 8.62476 4.66217 8.62476 4.45506C8.62476 4.24795 8.45686 4.08006 8.24976 4.08006H3.74976C3.54265 4.08006 3.37476 4.24795 3.37476 4.45506C3.37476 4.66217 3.54265 4.83006 3.74976 4.83006Z" fill="#64748B"/>
</svg>
