<svg width="24" height="22" viewBox="0 0 24 22" fill="none" xmlns="http://www.w3.org/2000/svg">
<path d="M12 0C18.6277 0 24 4.20819 24 9.39941C23.9997 14.5904 18.6275 18.7979 12 18.7979C11.2891 18.7996 10.5791 18.7514 9.875 18.6543C9.1828 19.1345 5.17743 21.9249 4.79785 21.9785C4.75149 21.9951 4.70155 22.002 4.65234 21.999C4.60343 21.996 4.5555 21.9838 4.51172 21.9619C4.38018 21.8851 4.4043 21.6826 4.4043 21.6826C4.4444 21.4105 5.44136 17.9932 5.625 17.3633C2.24668 15.7036 0.000192095 12.7554 0 9.39941C0 4.20819 5.37231 2.52278e-08 12 0Z" fill="#331D1E"/>
</svg>
