<svg width="12" height="12" viewBox="0 0 12 12" fill="none" xmlns="http://www.w3.org/2000/svg">
<path d="M6 1C8.76142 1 11 3.23858 11 6C11 8.76142 8.76142 11 6 11C3.23858 11 1 8.76142 1 6C1 3.23858 3.23858 1 6 1ZM6 2.09961C5.7794 2.09982 5.59982 2.2794 5.59961 2.5V6L5.60742 6.08008C5.6154 6.11905 5.63098 6.15549 5.64941 6.18945C5.65323 6.1965 5.65694 6.20414 5.66113 6.21094C5.66764 6.22133 5.6752 6.2315 5.68262 6.24121C5.69123 6.25252 5.70024 6.26409 5.70996 6.27441C5.71524 6.27997 5.72098 6.28577 5.72656 6.29102C5.73656 6.30042 5.74785 6.30905 5.75879 6.31738C5.76946 6.32548 5.78054 6.33379 5.79199 6.34082C5.80216 6.34704 5.81347 6.35214 5.82422 6.35742C5.83245 6.36147 5.84108 6.36565 5.84961 6.36914C5.86744 6.37642 5.88626 6.38207 5.90527 6.38672C5.91103 6.38812 5.91702 6.39041 5.92285 6.3916C5.9247 6.39196 5.92688 6.39311 5.92871 6.39355L6 6.40039H8.5L8.58105 6.3916C8.76282 6.35403 8.90021 6.19285 8.90039 6C8.90021 5.8072 8.76274 5.64603 8.58105 5.6084L8.5 5.59961H6.40039V2.5C6.40018 2.2794 6.2206 2.09982 6 2.09961Z" fill="#64748B"/>
</svg>
