<svg width="24" height="24" viewBox="0 0 24 24" fill="none" xmlns="http://www.w3.org/2000/svg">
<path d="M0 12C0 5.37258 5.37258 0 12 0C18.6274 0 24 5.37258 24 12C24 18.6274 18.6274 24 12 24C5.37258 24 0 18.6274 0 12Z" fill="#1E293B"/>
<path fill-rule="evenodd" clip-rule="evenodd" d="M14.4498 7.785H14.4998C15.8805 7.785 16.9998 8.90429 16.9998 10.285V14.785C16.9998 16.1657 15.8805 17.285 14.4998 17.285H9.49976C8.83671 17.285 8.20083 17.0216 7.73199 16.5528C7.26315 16.0839 6.99976 15.448 6.99976 14.785V10.285C6.99976 8.90429 8.11904 7.785 9.49976 7.785H9.54976V6.875C9.54976 6.66789 9.71765 6.5 9.92476 6.5C10.1319 6.5 10.2998 6.66789 10.2998 6.875V7.785H13.6998V6.875C13.6998 6.66789 13.8676 6.5 14.0748 6.5C14.2819 6.5 14.4498 6.66789 14.4498 6.875V7.785ZM9.74976 10.83H14.2498C14.4569 10.83 14.6248 10.6621 14.6248 10.455C14.6248 10.2479 14.4569 10.08 14.2498 10.08H9.74976C9.54265 10.08 9.37476 10.2479 9.37476 10.455C9.37476 10.6621 9.54265 10.83 9.74976 10.83Z" fill="#64748B"/>
</svg>
