<svg width="48" height="48" viewBox="0 0 48 48" fill="none" xmlns="http://www.w3.org/2000/svg">
<path d="M12.1002 34.2841L9.07503 37.3092C8.40278 35.9647 7.6633 32.6707 10.0834 30.2506C12.5035 27.8305 15.1253 28.57 16.1336 29.2422L23.1923 22.1836L27.2258 26.2171L20.1671 33.2757C20.5033 33.948 20.7722 35.8975 19.1588 38.3176C17.5454 40.7377 13.7808 40.6705 12.1002 40.3343L15.1253 37.3092V34.2841H12.1002Z" fill="#CAD5E1"/>
<path d="M38.0644 14.2872L41.0895 11.2621C41.7618 12.6066 42.5012 15.9006 40.0811 18.3207C37.6611 20.7408 35.0393 20.0013 34.0309 19.3291L26.9723 26.3877L22.9388 22.3542L29.9974 15.2956C29.6613 14.6233 29.3924 12.6738 31.0058 10.2537C32.6192 7.83361 36.3838 7.90084 38.0644 8.23696L35.0393 11.2621V14.2872H38.0644Z" fill="#CAD5E1"/>
<rect x="15.1649" y="17.8389" width="6.43631" height="32.4581" rx="2.01675" transform="rotate(-45 15.1649 17.8389)" fill="#FF9950"/>
<rect x="5.80579" y="18.7412" width="4.0335" height="9.48992" rx="2.01675" transform="rotate(-45 5.80579 18.7412)" fill="#575D68"/>
<rect x="8.0675" y="18.9873" width="5.86594" height="5.92087" transform="rotate(-45 8.0675 18.9873)" fill="#575D68"/>
<rect x="10.0831" y="14.9523" width="9.33256" height="9.48992" rx="2.01675" transform="rotate(-45 10.0831 14.9523)" fill="#575D68"/>
<path d="M16.1343 8.87474L13.1091 11.8998L15.1259 17.1433L20.1677 12.1015C22.0591 10.2101 20.4029 11.8664 24.3486 12.0796C24.6901 12.0981 24.873 11.7016 24.6456 11.4461C19.9656 6.18791 17.4277 7.90464 16.1343 8.87474Z" fill="#575D68"/>
</svg>
